# Blender 3.1.0
# www.blender.org
mtllib cone.mtl
o Cone
v 0.000000 0.394802 -0.052599
v 0.001592 0.483679 -0.008004
v 0.010262 0.394802 -0.051588
v 0.020129 0.394802 -0.048595
v 0.004534 0.483679 -0.006785
v 0.029222 0.394802 -0.043734
v 0.005770 0.483679 -0.005770
v 0.037193 0.394802 -0.037193
v 0.043734 0.394802 -0.029222
v 0.006785 0.483679 -0.004534
v 0.048595 0.394802 -0.020129
v 0.008004 0.483679 -0.001592
v 0.051588 0.394802 -0.010262
v 0.052599 0.394802 0.000000
v 0.008004 0.483679 0.001592
v 0.051588 0.394802 0.010262
v 0.048595 0.394802 0.020129
v 0.006785 0.483679 0.004534
v 0.043734 0.394802 0.029222
v 0.037193 0.394802 0.037193
v 0.005770 0.483679 0.005770
v 0.029222 0.394802 0.043734
v 0.004534 0.483679 0.006785
v 0.020129 0.394802 0.048595
v 0.003123 0.483679 0.007539
v 0.010262 0.394802 0.051588
v 0.000000 0.483679 0.008160
v 0.000000 0.394802 0.052599
v -0.010262 0.394802 0.051588
v -0.001592 0.483679 0.008004
v -0.020129 0.394802 0.048595
v -0.003123 0.483679 0.007539
v -0.029222 0.394802 0.043734
v -0.004534 0.483679 0.006785
v -0.037193 0.394802 0.037193
v -0.005770 0.483679 0.005770
v -0.043734 0.394802 0.029222
v -0.007539 0.483679 0.003123
v -0.048595 0.394802 0.020129
v -0.051588 0.394802 0.010262
v -0.008004 0.483679 0.001592
v -0.052599 0.394802 0.000000
v -0.008004 0.483679 -0.001592
v -0.051588 0.394802 -0.010262
v -0.048595 0.394802 -0.020129
v -0.007539 0.483679 -0.003123
v -0.043734 0.394802 -0.029222
v -0.005770 0.483679 -0.005770
v -0.037193 0.394802 -0.037193
v -0.004534 0.483679 -0.006785
v -0.029222 0.394802 -0.043734
v -0.020129 0.394802 -0.048595
v 0.490393 -0.500000 -0.097545
v 0.097545 -0.500000 0.490393
v -0.490393 -0.500000 0.097545
v -0.001592 0.483679 -0.008004
v -0.010262 0.394802 -0.051588
v -0.095381 -0.477812 -0.479512
v 0.000000 -0.500000 -0.500000
v -0.097545 -0.500000 -0.490393
v 0.007539 0.483679 -0.003123
v 0.000000 0.500000 0.000000
v -0.008160 0.483679 0.000000
v -0.003123 0.483679 -0.007539
v 0.007539 0.483679 0.003123
v 0.001592 0.483679 0.008004
v -0.006785 0.483679 0.004534
v -0.006785 0.483679 -0.004534
v 0.003123 0.483679 -0.007539
v 0.008160 0.483679 0.000000
v 0.000000 0.483679 -0.008160
v -0.187096 -0.477812 -0.451690
v -0.191342 -0.500000 -0.461940
v -0.277785 -0.500000 -0.415735
v -0.345709 -0.477812 -0.345709
v -0.353553 -0.500000 -0.353553
v -0.406510 -0.477812 -0.271621
v -0.415735 -0.500000 -0.277785
v -0.451690 -0.477812 -0.187096
v -0.461940 -0.500000 -0.191342
v -0.479512 -0.477812 -0.095381
v -0.490393 -0.500000 -0.097545
v -0.488906 -0.477812 -0.000000
v -0.500000 -0.500000 -0.000000
v -0.479512 -0.477812 0.095381
v -0.461940 -0.500000 0.191342
v -0.415735 -0.500000 0.277785
v -0.451690 -0.477812 0.187096
v -0.345709 -0.477812 0.345709
v -0.353553 -0.500000 0.353553
v -0.271622 -0.477812 0.406510
v -0.277785 -0.500000 0.415735
v -0.191342 -0.500000 0.461940
v -0.095381 -0.477812 0.479512
v -0.097545 -0.500000 0.490393
v 0.000000 -0.477812 0.488906
v 0.000000 -0.500000 0.500000
v 0.187096 -0.477812 0.451690
v 0.191342 -0.500000 0.461940
v 0.271622 -0.477812 0.406510
v 0.277785 -0.500000 0.415735
v 0.345709 -0.477812 0.345709
v 0.353553 -0.500000 0.353553
v 0.406510 -0.477812 0.271622
v 0.415735 -0.500000 0.277785
v 0.451690 -0.477812 0.187096
v 0.461940 -0.500000 0.191342
v 0.479512 -0.477812 0.095381
v 0.490393 -0.500000 0.097545
v 0.488906 -0.477812 -0.000000
v 0.500000 -0.500000 -0.000000
v 0.479512 -0.477812 -0.095381
v 0.451690 -0.477812 -0.187096
v 0.461940 -0.500000 -0.191342
v 0.406510 -0.477812 -0.271622
v 0.415735 -0.500000 -0.277785
v 0.353553 -0.500000 -0.353553
v 0.271622 -0.477812 -0.406510
v 0.277785 -0.500000 -0.415735
v 0.187096 -0.477812 -0.451690
v 0.191342 -0.500000 -0.461940
v 0.097545 -0.500000 -0.490393
v 0.000000 -0.477812 -0.488906
v 0.000000 -0.285514 -0.392757
v -0.076623 -0.285514 -0.385210
v 0.000000 -0.093215 -0.296608
v -0.039108 0.099083 -0.196607
v -0.057865 -0.093215 -0.290908
v -0.024685 0.246942 -0.124098
v 0.000000 0.246942 -0.126529
v -0.150302 -0.285514 -0.362860
v -0.076712 0.099083 -0.185200
v -0.113507 -0.093215 -0.274030
v -0.048420 0.246942 -0.116897
v -0.271622 -0.477812 -0.406510
v -0.218204 -0.285514 -0.326565
v -0.111369 0.099083 -0.166675
v -0.164786 -0.093215 -0.246620
v -0.070296 0.246942 -0.105205
v -0.277721 -0.285514 -0.277721
v -0.209733 -0.093215 -0.209733
v -0.141746 0.099083 -0.141746
v -0.089469 0.246942 -0.089469
v -0.326565 -0.285514 -0.218204
v -0.166675 0.099083 -0.111369
v -0.246620 -0.093215 -0.164786
v -0.105205 0.246942 -0.070296
v -0.362860 -0.285514 -0.150302
v -0.274030 -0.093215 -0.113507
v -0.185200 0.099083 -0.076712
v -0.116897 0.246942 -0.048420
v -0.385210 -0.285514 -0.076623
v -0.290908 -0.093215 -0.057865
v -0.196607 0.099083 -0.039108
v -0.124098 0.246942 -0.024685
v -0.392757 -0.285514 -0.000000
v -0.296608 -0.093215 -0.000000
v -0.200459 0.099083 0.000000
v -0.126529 0.246942 0.000000
v -0.385210 -0.285514 0.076623
v -0.290908 -0.093215 0.057865
v -0.124098 0.246942 0.024685
v -0.362860 -0.285514 0.150302
v -0.274030 -0.093215 0.113507
v -0.185200 0.099083 0.076712
v -0.116897 0.246942 0.048420
v -0.406510 -0.477812 0.271622
v -0.326565 -0.285514 0.218204
v -0.246620 -0.093215 0.164786
v -0.105205 0.246942 0.070296
v -0.277721 -0.285514 0.277721
v -0.141746 0.099083 0.141746
v -0.209733 -0.093215 0.209733
v -0.089469 0.246942 0.089469
v -0.218204 -0.285514 0.326565
v -0.164786 -0.093215 0.246620
v -0.111369 0.099083 0.166675
v -0.070296 0.246942 0.105205
v -0.187096 -0.477812 0.451690
v -0.150302 -0.285514 0.362860
v -0.076712 0.099083 0.185200
v -0.113507 -0.093215 0.274030
v -0.048420 0.246942 0.116897
v -0.076623 -0.285514 0.385210
v -0.057865 -0.093215 0.290908
v -0.039108 0.099083 0.196607
v -0.024685 0.246942 0.124098
v 0.000000 -0.285514 0.392757
v 0.000000 -0.093215 0.296608
v 0.000000 0.246942 0.126529
v 0.076623 -0.285514 0.385210
v 0.095381 -0.477812 0.479512
v 0.057865 -0.093215 0.290908
v 0.039108 0.099083 0.196607
v 0.024685 0.246942 0.124098
v 0.150302 -0.285514 0.362860
v 0.113507 -0.093215 0.274030
v 0.048420 0.246942 0.116897
v 0.164786 -0.093215 0.246620
v 0.218204 -0.285514 0.326565
v 0.111369 0.099083 0.166675
v 0.070296 0.246942 0.105205
v 0.277721 -0.285514 0.277721
v 0.209733 -0.093215 0.209733
v 0.141746 0.099083 0.141746
v 0.089469 0.246942 0.089469
v 0.326565 -0.285514 0.218204
v 0.246620 -0.093215 0.164786
v 0.166675 0.099083 0.111369
v 0.105205 0.246942 0.070296
v 0.362860 -0.285514 0.150301
v 0.274030 -0.093215 0.113507
v 0.185200 0.099083 0.076712
v 0.116897 0.246942 0.048420
v 0.385210 -0.285514 0.076623
v 0.290908 -0.093215 0.057865
v 0.124098 0.246942 0.024685
v 0.392757 -0.285514 -0.000000
v 0.296608 -0.093215 -0.000000
v 0.200459 0.099083 0.000000
v 0.126529 0.246942 0.000000
v 0.385210 -0.285514 -0.076623
v 0.196607 0.099083 -0.039108
v 0.290908 -0.093215 -0.057865
v 0.124098 0.246942 -0.024685
v 0.362860 -0.285514 -0.150302
v 0.274030 -0.093215 -0.113507
v 0.185200 0.099083 -0.076712
v 0.116897 0.246942 -0.048420
v 0.326565 -0.285514 -0.218204
v 0.246620 -0.093215 -0.164786
v 0.166675 0.099083 -0.111369
v 0.105205 0.246942 -0.070296
v 0.277721 -0.285514 -0.277721
v 0.345709 -0.477812 -0.345709
v 0.209733 -0.093215 -0.209733
v 0.141746 0.099083 -0.141746
v 0.089469 0.246942 -0.089469
v 0.218204 -0.285514 -0.326565
v 0.164786 -0.093215 -0.246620
v 0.070296 0.246942 -0.105205
v 0.150302 -0.285514 -0.362860
v 0.076712 0.099083 -0.185200
v 0.113507 -0.093215 -0.274030
v 0.048420 0.246942 -0.116897
v 0.076623 -0.285514 -0.385210
v 0.095381 -0.477812 -0.479512
v 0.057865 -0.093215 -0.290908
v 0.024685 0.246942 -0.124098
v 0.000000 0.099083 -0.200459
v 0.039108 0.099083 -0.196607
v 0.111369 0.099083 -0.166675
v 0.196607 0.099083 0.039108
v 0.076712 0.099083 0.185200
v 0.000000 0.099083 0.200459
v -0.166675 0.099083 0.111369
v -0.196607 0.099083 0.039108
vn -0.0000 0.4472 -0.8944
vn 0.1744 0.4472 -0.8772
vn 0.1745 0.4472 -0.8772
vn 0.3423 0.4472 -0.8263
vn 0.4970 0.4472 -0.7436
vn 0.4969 0.4472 -0.7437
vn 0.6325 0.4472 -0.6325
vn 0.7437 0.4472 -0.4969
vn 0.7436 0.4472 -0.4970
vn 0.8263 0.4472 -0.3423
vn 0.8772 0.4472 -0.1744
vn 0.8772 0.4472 -0.1745
vn 0.8944 0.4472 -0.0000
vn 0.8772 0.4472 0.1744
vn 0.8772 0.4472 0.1745
vn 0.8263 0.4472 0.3423
vn 0.7436 0.4472 0.4970
vn 0.7437 0.4472 0.4969
vn 0.6325 0.4472 0.6325
vn 0.4969 0.4472 0.7437
vn 0.4970 0.4472 0.7436
vn 0.3423 0.4472 0.8263
vn 0.3424 0.4472 0.8263
vn 0.1745 0.4472 0.8772
vn -0.0000 0.4472 0.8944
vn -0.1745 0.4472 0.8772
vn -0.1744 0.4472 0.8773
vn -0.3423 0.4472 0.8263
vn -0.3424 0.4472 0.8263
vn -0.4969 0.4472 0.7437
vn -0.4970 0.4472 0.7436
vn -0.6325 0.4472 0.6325
vn -0.7437 0.4472 0.4969
vn -0.8263 0.4472 0.3424
vn -0.8263 0.4472 0.3423
vn -0.8772 0.4472 0.1745
vn -0.8772 0.4472 0.1744
vn -0.8944 0.4472 -0.0000
vn -0.8772 0.4472 -0.1744
vn -0.8772 0.4472 -0.1745
vn -0.8263 0.4472 -0.3423
vn -0.8263 0.4472 -0.3424
vn -0.7437 0.4472 -0.4969
vn -0.6325 0.4472 -0.6325
vn -0.4970 0.4472 -0.7436
vn -0.4969 0.4472 -0.7437
vn -0.3423 0.4472 -0.8263
vn -0.0000 -1.0000 -0.0000
vn -0.1744 0.4472 -0.8772
vn -0.1745 0.4472 -0.8772
vn 0.8263 0.4472 -0.3424
vn -0.0000 1.0000 -0.0000
vn -0.3424 0.4472 -0.8263
vn 0.8263 0.4472 0.3424
vn 0.1744 0.4472 0.8773
vn -0.7436 0.4472 0.4970
vn -0.7436 0.4472 -0.4970
vn 0.3424 0.4472 -0.8263
s 1
usemtl None.001
f 1//1 2//2 3//3
f 2//2 4//4 3//3
f 4//4 5//5 6//6
f 6//6 7//7 8//7
f 7//7 9//8 8//7
f 10//9 11//10 9//8
f 11//10 12//11 13//12
f 12//11 14//13 13//12
f 14//13 15//14 16//15
f 15//14 17//16 16//15
f 17//16 18//17 19//18
f 18//17 20//19 19//18
f 21//19 22//20 20//19
f 23//21 24//22 22//20
f 25//23 26//24 24//22
f 26//24 27//25 28//25
f 27//25 29//26 28//25
f 30//27 31//28 29//26
f 32//29 33//30 31//28
f 34//31 35//32 33//30
f 36//32 37//33 35//32
f 37//33 38//34 39//35
f 38//34 40//36 39//35
f 41//37 42//38 40//36
f 42//38 43//39 44//40
f 43//39 45//41 44//40
f 46//42 47//43 45//41
f 47//43 48//44 49//44
f 49//44 50//45 51//46
f 50//45 52//47 51//46
f 53//48 54//48 55//48
f 52//47 56//49 57//50
f 56//49 1//1 57//50
f 58//50 59//1 60//50
f 61//51 10//9 62//52
f 21//19 18//17 62//52
f 32//29 30//27 62//52
f 63//38 41//37 62//52
f 64//53 50//45 62//52
f 10//9 7//7 62//52
f 18//17 65//54 62//52
f 30//27 27//25 62//52
f 41//37 38//34 62//52
f 50//45 48//44 62//52
f 7//7 5//5 62//52
f 65//54 15//14 62//52
f 27//25 66//55 62//52
f 38//34 67//56 62//52
f 48//44 68//57 62//52
f 5//5 69//58 62//52
f 15//14 70//13 62//52
f 66//55 25//23 62//52
f 67//56 36//32 62//52
f 68//57 46//42 62//52
f 71//1 56//49 62//52
f 69//58 2//2 62//52
f 70//13 12//11 62//52
f 25//23 23//21 62//52
f 36//32 34//31 62//52
f 46//42 43//39 62//52
f 56//49 64//53 62//52
f 2//2 71//1 62//52
f 12//11 61//51 62//52
f 23//21 21//19 62//52
f 34//31 32//29 62//52
f 43//39 63//38 62//52
f 72//47 60//50 73//47
f 74//46 72//47 73//47
f 75//44 74//46 76//44
f 77//43 76//44 78//43
f 79//41 78//43 80//41
f 81//40 80//41 82//40
f 83//38 82//40 84//38
f 85//36 84//38 55//36
f 86//35 85//36 55//36
f 87//33 88//35 86//35
f 89//32 87//33 90//32
f 91//30 90//32 92//30
f 93//28 91//30 92//30
f 94//26 93//28 95//26
f 96//25 95//26 97//25
f 54//24 96//25 97//25
f 98//22 54//24 99//22
f 100//20 99//22 101//20
f 102//19 101//20 103//19
f 104//18 103//19 105//18
f 106//16 105//18 107//16
f 108//15 107//16 109//15
f 110//13 109//15 111//13
f 112//12 111//13 53//12
f 113//10 53//12 114//10
f 115//8 114//10 116//8
f 117//7 115//8 116//8
f 118//6 117//7 119//6
f 120//4 119//6 121//4
f 122//3 120//4 121//4
f 123//1 122//3 59//1
f 58//50 124//1 123//1
f 125//50 126//1 124//1
f 127//50 126//1 128//50
f 129//50 1//1 130//1
f 131//47 58//50 72//47
f 131//47 128//50 125//50
f 132//47 128//50 133//47
f 52//47 129//50 134//47
f 135//46 131//47 72//47
f 136//46 133//47 131//47
f 137//46 133//47 138//46
f 139//46 52//47 134//47
f 140//44 135//46 75//44
f 141//44 136//46 140//44
f 142//44 138//46 141//44
f 49//44 139//46 143//44
f 144//43 75//44 77//43
f 144//43 141//44 140//44
f 145//43 141//44 146//43
f 147//43 49//44 143//44
f 148//41 77//43 79//41
f 149//41 144//43 148//41
f 150//41 146//43 149//41
f 45//41 147//43 151//41
f 152//40 79//41 81//40
f 153//40 148//41 152//40
f 154//40 149//41 153//40
f 44//40 151//41 155//40
f 156//38 81//40 83//38
f 157//38 152//40 156//38
f 158//38 153//40 157//38
f 159//38 44//40 155//40
f 160//36 83//38 85//36
f 161//36 156//38 160//36
f 161//36 158//38 157//38
f 40//36 159//38 162//36
f 163//35 85//36 88//35
f 164//35 160//36 163//35
f 165//35 161//36 164//35
f 39//35 162//36 166//35
f 167//33 163//35 88//35
f 168//33 164//35 163//35
f 169//33 165//35 164//35
f 170//33 39//35 166//35
f 171//32 167//33 89//32
f 171//32 169//33 168//33
f 172//32 169//33 173//32
f 35//32 170//33 174//32
f 175//30 89//32 91//30
f 176//30 171//32 175//30
f 177//30 173//32 176//30
f 33//30 174//32 178//30
f 179//28 175//30 91//30
f 180//28 176//30 175//30
f 181//28 176//30 182//28
f 31//28 178//30 183//28
f 184//26 179//28 94//26
f 185//26 180//28 184//26
f 186//26 182//28 185//26
f 29//26 183//28 187//26
f 188//25 94//26 96//25
f 188//25 185//26 184//26
f 189//25 186//26 185//26
f 190//25 29//26 187//26
f 191//24 96//25 192//24
f 193//24 188//25 191//24
f 194//24 189//25 193//24
f 26//24 190//25 195//24
f 196//22 192//24 98//22
f 197//22 191//24 196//22
f 197//22 194//24 193//24
f 198//22 26//24 195//24
f 100//20 196//22 98//22
f 199//20 196//22 200//20
f 201//20 197//22 199//20
f 22//20 198//22 202//20
f 203//19 100//20 102//19
f 204//19 200//20 203//19
f 205//19 199//20 204//19
f 206//19 22//20 202//20
f 207//18 102//19 104//18
f 208//18 203//19 207//18
f 209//18 204//19 208//18
f 19//18 206//19 210//18
f 211//16 104//18 106//16
f 212//16 207//18 211//16
f 213//16 208//18 212//16
f 17//16 210//18 214//16
f 215//15 106//16 108//15
f 215//15 212//16 211//16
f 216//15 213//16 212//16
f 16//15 214//16 217//15
f 218//13 108//15 110//13
f 219//13 215//15 218//13
f 220//13 216//15 219//13
f 14//13 217//15 221//13
f 112//12 218//13 110//13
f 222//12 219//13 218//13
f 223//12 219//13 224//12
f 13//12 221//13 225//12
f 226//10 112//12 113//10
f 227//10 222//12 226//10
f 228//10 224//12 227//10
f 229//10 13//12 225//12
f 230//8 113//10 115//8
f 231//8 226//10 230//8
f 232//8 227//10 231//8
f 9//8 229//10 233//8
f 234//7 115//8 235//7
f 236//7 230//8 234//7
f 237//7 231//8 236//7
f 8//7 233//8 238//7
f 118//6 234//7 235//7
f 239//6 236//7 234//7
f 240//6 237//7 236//7
f 241//6 8//7 238//7
f 120//4 239//6 118//6
f 242//4 240//6 239//6
f 243//4 240//6 244//4
f 4//4 241//6 245//4
f 246//3 120//4 247//3
f 248//3 242//4 246//3
f 248//3 243//4 244//4
f 3//3 245//4 249//3
f 124//1 247//3 123//1
f 126//1 246//3 124//1
f 250//1 248//3 126//1
f 1//1 249//3 130//1
f 130//1 251//3 250//1
f 251//3 245//4 243//4
f 245//4 252//6 243//4
f 252//6 238//7 237//7
f 238//7 232//8 237//7
f 232//8 229//10 228//10
f 229//10 223//12 228//10
f 223//12 221//13 220//13
f 221//13 253//15 220//13
f 217//15 213//16 253//15
f 214//16 209//18 213//16
f 210//18 205//19 209//18
f 205//19 202//20 201//20
f 201//20 198//22 254//22
f 254//22 195//24 194//24
f 195//24 255//25 194//24
f 190//25 186//26 255//25
f 187//26 181//28 186//26
f 183//28 177//30 181//28
f 178//30 172//32 177//30
f 174//32 256//33 172//32
f 256//33 166//35 165//35
f 166//35 257//36 165//35
f 162//36 158//38 257//36
f 159//38 154//40 158//38
f 155//40 150//41 154//40
f 150//41 147//43 145//43
f 147//43 142//44 145//43
f 142//44 139//46 137//46
f 139//46 132//47 137//46
f 134//47 127//50 132//47
f 129//50 250//1 127//50
f 1//1 71//1 2//2
f 2//2 69//58 4//4
f 4//4 69//58 5//5
f 6//6 5//5 7//7
f 7//7 10//9 9//8
f 10//9 61//51 11//10
f 11//10 61//51 12//11
f 12//11 70//13 14//13
f 14//13 70//13 15//14
f 15//14 65//54 17//16
f 17//16 65//54 18//17
f 18//17 21//19 20//19
f 21//19 23//21 22//20
f 23//21 25//23 24//22
f 25//23 66//55 26//24
f 26//24 66//55 27//25
f 27//25 30//27 29//26
f 30//27 32//29 31//28
f 32//29 34//31 33//30
f 34//31 36//32 35//32
f 36//32 67//56 37//33
f 37//33 67//56 38//34
f 38//34 41//37 40//36
f 41//37 63//38 42//38
f 42//38 63//38 43//39
f 43//39 46//42 45//41
f 46//42 68//57 47//43
f 47//43 68//57 48//44
f 49//44 48//44 50//45
f 50//45 64//53 52//47
f 60//48 59//48 122//48
f 122//48 121//48 119//48
f 119//48 117//48 116//48
f 116//48 114//48 53//48
f 53//48 111//48 109//48
f 109//48 107//48 105//48
f 105//48 103//48 101//48
f 101//48 99//48 54//48
f 54//48 97//48 95//48
f 95//48 93//48 92//48
f 92//48 90//48 87//48
f 87//48 86//48 55//48
f 55//48 84//48 82//48
f 82//48 80//48 55//48
f 80//48 78//48 55//48
f 78//48 76//48 60//48
f 76//48 74//48 60//48
f 74//48 73//48 60//48
f 60//48 122//48 53//48
f 122//48 119//48 53//48
f 119//48 116//48 53//48
f 53//48 109//48 105//48
f 105//48 101//48 53//48
f 101//48 54//48 53//48
f 54//48 95//48 55//48
f 95//48 92//48 55//48
f 92//48 87//48 55//48
f 55//48 78//48 60//48
f 60//48 53//48 55//48
f 52//47 64//53 56//49
f 56//49 71//1 1//1
f 58//50 123//1 59//1
f 72//47 58//50 60//50
f 74//46 135//46 72//47
f 75//44 135//46 74//46
f 77//43 75//44 76//44
f 79//41 77//43 78//43
f 81//40 79//41 80//41
f 83//38 81//40 82//40
f 85//36 83//38 84//38
f 86//35 88//35 85//36
f 87//33 167//33 88//35
f 89//32 167//33 87//33
f 91//30 89//32 90//32
f 93//28 179//28 91//30
f 94//26 179//28 93//28
f 96//25 94//26 95//26
f 54//24 192//24 96//25
f 98//22 192//24 54//24
f 100//20 98//22 99//22
f 102//19 100//20 101//20
f 104//18 102//19 103//19
f 106//16 104//18 105//18
f 108//15 106//16 107//16
f 110//13 108//15 109//15
f 112//12 110//13 111//13
f 113//10 112//12 53//12
f 115//8 113//10 114//10
f 117//7 235//7 115//8
f 118//6 235//7 117//7
f 120//4 118//6 119//6
f 122//3 247//3 120//4
f 123//1 247//3 122//3
f 58//50 125//50 124//1
f 125//50 128//50 126//1
f 127//50 250//1 126//1
f 129//50 57//50 1//1
f 131//47 125//50 58//50
f 131//47 133//47 128//50
f 132//47 127//50 128//50
f 52//47 57//50 129//50
f 135//46 136//46 131//47
f 136//46 138//46 133//47
f 137//46 132//47 133//47
f 139//46 51//46 52//47
f 140//44 136//46 135//46
f 141//44 138//46 136//46
f 142//44 137//46 138//46
f 49//44 51//46 139//46
f 144//43 140//44 75//44
f 144//43 146//43 141//44
f 145//43 142//44 141//44
f 147//43 47//43 49//44
f 148//41 144//43 77//43
f 149//41 146//43 144//43
f 150//41 145//43 146//43
f 45//41 47//43 147//43
f 152//40 148//41 79//41
f 153//40 149//41 148//41
f 154//40 150//41 149//41
f 44//40 45//41 151//41
f 156//38 152//40 81//40
f 157//38 153//40 152//40
f 158//38 154//40 153//40
f 159//38 42//38 44//40
f 160//36 156//38 83//38
f 161//36 157//38 156//38
f 161//36 257//36 158//38
f 40//36 42//38 159//38
f 163//35 160//36 85//36
f 164//35 161//36 160//36
f 165//35 257//36 161//36
f 39//35 40//36 162//36
f 167//33 168//33 163//35
f 168//33 169//33 164//35
f 169//33 256//33 165//35
f 170//33 37//33 39//35
f 171//32 168//33 167//33
f 171//32 173//32 169//33
f 172//32 256//33 169//33
f 35//32 37//33 170//33
f 175//30 171//32 89//32
f 176//30 173//32 171//32
f 177//30 172//32 173//32
f 33//30 35//32 174//32
f 179//28 180//28 175//30
f 180//28 182//28 176//30
f 181//28 177//30 176//30
f 31//28 33//30 178//30
f 184//26 180//28 179//28
f 185//26 182//28 180//28
f 186//26 181//28 182//28
f 29//26 31//28 183//28
f 188//25 184//26 94//26
f 188//25 189//25 185//26
f 189//25 255//25 186//26
f 190//25 28//25 29//26
f 191//24 188//25 96//25
f 193//24 189//25 188//25
f 194//24 255//25 189//25
f 26//24 28//25 190//25
f 196//22 191//24 192//24
f 197//22 193//24 191//24
f 197//22 254//22 194//24
f 198//22 24//22 26//24
f 100//20 200//20 196//22
f 199//20 197//22 196//22
f 201//20 254//22 197//22
f 22//20 24//22 198//22
f 203//19 200//20 100//20
f 204//19 199//20 200//20
f 205//19 201//20 199//20
f 206//19 20//19 22//20
f 207//18 203//19 102//19
f 208//18 204//19 203//19
f 209//18 205//19 204//19
f 19//18 20//19 206//19
f 211//16 207//18 104//18
f 212//16 208//18 207//18
f 213//16 209//18 208//18
f 17//16 19//18 210//18
f 215//15 211//16 106//16
f 215//15 216//15 212//16
f 216//15 253//15 213//16
f 16//15 17//16 214//16
f 218//13 215//15 108//15
f 219//13 216//15 215//15
f 220//13 253//15 216//15
f 14//13 16//15 217//15
f 112//12 222//12 218//13
f 222//12 224//12 219//13
f 223//12 220//13 219//13
f 13//12 14//13 221//13
f 226//10 222//12 112//12
f 227//10 224//12 222//12
f 228//10 223//12 224//12
f 229//10 11//10 13//12
f 230//8 226//10 113//10
f 231//8 227//10 226//10
f 232//8 228//10 227//10
f 9//8 11//10 229//10
f 234//7 230//8 115//8
f 236//7 231//8 230//8
f 237//7 232//8 231//8
f 8//7 9//8 233//8
f 118//6 239//6 234//7
f 239//6 240//6 236//7
f 240//6 252//6 237//7
f 241//6 6//6 8//7
f 120//4 242//4 239//6
f 242//4 244//4 240//6
f 243//4 252//6 240//6
f 4//4 6//6 241//6
f 246//3 242//4 120//4
f 248//3 244//4 242//4
f 248//3 251//3 243//4
f 3//3 4//4 245//4
f 124//1 246//3 247//3
f 126//1 248//3 246//3
f 250//1 251//3 248//3
f 1//1 3//3 249//3
f 130//1 249//3 251//3
f 251//3 249//3 245//4
f 245//4 241//6 252//6
f 252//6 241//6 238//7
f 238//7 233//8 232//8
f 232//8 233//8 229//10
f 229//10 225//12 223//12
f 223//12 225//12 221//13
f 221//13 217//15 253//15
f 217//15 214//16 213//16
f 214//16 210//18 209//18
f 210//18 206//19 205//19
f 205//19 206//19 202//20
f 201//20 202//20 198//22
f 254//22 198//22 195//24
f 195//24 190//25 255//25
f 190//25 187//26 186//26
f 187//26 183//28 181//28
f 183//28 178//30 177//30
f 178//30 174//32 172//32
f 174//32 170//33 256//33
f 256//33 170//33 166//35
f 166//35 162//36 257//36
f 162//36 159//38 158//38
f 159//38 155//40 154//40
f 155//40 151//41 150//41
f 150//41 151//41 147//43
f 147//43 143//44 142//44
f 142//44 143//44 139//46
f 139//46 134//47 132//47
f 134//47 129//50 127//50
f 129//50 130//1 250//1
