# Blender 3.1.0
# www.blender.org
mtllib letters2.mtl
o Cube.001
v -0.500000 -0.500000 0.500000
v -0.500000 -0.500000 -0.500000
v 0.500000 0.500000 0.500000
v -0.500000 0.500000 0.500000
v 0.500000 0.500000 -0.500000
v -0.500000 0.500000 -0.500000
v 0.500000 -0.500000 0.500000
v 0.500000 -0.500000 -0.500000
vn -0.0000 -0.0000 -0.5000
vn -0.0000 0.5000 -0.0000
vn -0.0000 -0.0000 0.5000
vn 0.5000 -0.0000 -0.0000
vn -0.5000 -0.0000 -0.0000
vn -0.0000 -0.5000 -0.0000
vt 0.326604 0.828520
vt 0.630951 0.828520
vt 0.588721 0.008755
vt 0.783125 0.371999
vt 0.783125 0.676347
vt 0.372795 0.008755
vt 0.326604 0.524173
vt 0.478777 0.676347
vt 0.478778 0.371999
vt 0.630951 0.524173
vt 0.174430 0.676347
vt 0.174430 0.371999
vt 0.588721 0.224681
vt 0.630951 0.219826
vt 0.326604 0.219826
vt 0.372795 0.224681
s 0
usemtl Material
f 2/4/1 5/9/1 8/14/1
f 6/10/2 3/7/2 5/9/2
f 4/8/3 7/11/3 3/7/3
f 5/9/4 7/12/4 8/15/4
f 2/5/5 4/8/5 6/10/5
f 7/13/6 2/6/6 8/16/6
f 2/4/1 6/10/1 5/9/1
f 6/10/2 4/8/2 3/7/2
f 4/8/3 1/1/3 7/11/3
f 5/9/4 3/7/4 7/12/4
f 2/5/5 1/2/5 4/8/5
f 7/13/6 1/3/6 2/6/6
